<?xml version="1.0" standalone="no"?>
<!DOCTYPE svg PUBLIC "-//W3C//DTD SVG 20010904//EN"
 "http://www.w3.org/TR/2001/REC-SVG-20010904/DTD/svg10.dtd">
<svg version="1.0" xmlns="http://www.w3.org/2000/svg"
 width="512.000000pt" height="512.000000pt" viewBox="0 0 512.000000 512.000000"
 preserveAspectRatio="xMidYMid meet">
<metadata>
Created by potrace 1.14, written by Peter Selinger 2001-2017
</metadata>
<g transform="translate(0.000000,512.000000) scale(0.100000,-0.100000)"
fill="#000000" stroke="none">
<path d="M1095 5010 c-198 -41 -264 -64 -410 -144 -27 -16 -59 -36 -71 -47
-11 -10 -24 -19 -28 -19 -4 0 -20 -12 -36 -27 -15 -16 -47 -47 -71 -70 -61
-58 -99 -100 -99 -109 0 -4 -10 -19 -23 -33 -28 -31 -97 -145 -97 -160 0 -6
-9 -26 -20 -46 -11 -20 -25 -55 -30 -78 -6 -23 -13 -49 -15 -57 -3 -8 -14 -53
-25 -100 -19 -83 -20 -121 -17 -1630 2 -850 7 -1562 11 -1584 4 -21 17 -64 27
-94 10 -30 19 -61 19 -69 0 -8 11 -38 24 -66 13 -29 32 -68 40 -87 22 -47 58
-105 84 -135 12 -14 22 -28 22 -33 0 -8 134 -145 182 -185 18 -15 38 -27 44
-27 7 0 14 -6 17 -12 3 -7 22 -22 43 -33 22 -11 59 -32 83 -47 25 -16 55 -28
67 -28 13 0 25 -4 29 -9 9 -15 103 -43 210 -62 93 -17 199 -18 1585 -16 1573
3 1524 1 1665 49 112 38 135 48 175 73 22 14 44 25 50 25 17 0 181 129 233
183 55 57 127 155 161 219 13 24 28 53 34 63 61 114 103 298 106 455 1 109 -8
210 -23 239 -4 9 -11 37 -14 63 -4 26 -18 71 -32 99 -14 29 -25 59 -25 67 0 8
-14 34 -30 59 -16 24 -30 48 -30 53 0 5 -11 21 -24 37 -12 15 -25 33 -27 40
-17 50 -300 303 -339 303 -7 0 -32 14 -57 30 -24 17 -50 30 -57 30 -7 0 -41
12 -77 26 -35 14 -93 30 -129 35 -36 5 -78 12 -95 15 -16 3 -160 6 -319 6
l-288 0 6 40 c4 23 10 46 14 52 3 6 7 16 8 21 1 6 9 41 17 79 24 109 17 279
-17 401 -14 55 -40 127 -56 160 -17 34 -30 66 -30 72 0 6 -6 18 -12 25 -7 7
-34 45 -60 84 -26 39 -60 82 -75 96 -16 14 -36 34 -45 44 -99 108 -354 241
-498 257 -30 4 -66 9 -80 12 -30 7 -187 8 -215 2 -11 -3 -44 -8 -72 -12 l-53
-7 -1 29 c0 15 0 111 0 213 0 335 -19 460 -96 635 -20 44 -47 94 -60 112 -12
17 -23 36 -23 40 0 17 -111 146 -174 203 -22 19 -48 43 -58 53 -10 9 -22 17
-26 17 -5 0 -17 9 -28 21 -10 11 -42 32 -71 46 -29 15 -53 30 -53 35 0 4 -7 8
-17 8 -9 0 -45 14 -80 30 -34 17 -71 30 -81 30 -9 0 -48 10 -87 21 -77 22
-308 34 -380 19z"/>
</g>
</svg>
